<svg width="46" height="32" viewBox="0 0 46 32" fill="none" xmlns="http://www.w3.org/2000/svg">
<path d="M30.2869 27.2429H14.81C14.6028 28.5509 13.9357 29.742 12.9286 30.6021C11.9216 31.4621 10.6408 31.9346 9.31645 31.9346C7.99215 31.9346 6.71129 31.4621 5.70427 30.6021C4.69725 29.742 4.03016 28.5509 3.82295 27.2429H1.88594C1.39112 27.2397 0.917772 27.0404 0.569658 26.6887C0.221545 26.337 0.0270845 25.8618 0.028948 25.3669V1.87695C0.026819 1.38195 0.22115 0.906335 0.569292 0.554443C0.917435 0.202551 1.39095 0.00317363 1.88594 0H27.437C27.9319 0.00317353 28.4053 0.202522 28.7533 0.554443C29.1012 0.906364 29.2954 1.38204 29.293 1.87695V3.78198H36.414C36.4943 3.78164 36.5744 3.79208 36.652 3.81299C38.952 4.01299 40.109 5.2129 41.329 7.2749L44.888 13.3689C44.9728 13.5136 45.0177 13.6782 45.018 13.8459V26.304C45.019 26.5515 44.9218 26.7892 44.7476 26.9651C44.5734 27.141 44.3365 27.2406 44.0889 27.2419H41.275C41.0678 28.5499 40.4007 29.741 39.3936 30.6011C38.3866 31.4611 37.1058 31.9336 35.7815 31.9336C34.4571 31.9336 33.1763 31.4611 32.1693 30.6011C31.1622 29.741 30.4952 28.5499 30.288 27.2419L30.2869 27.2429ZM32.065 26.304C32.0729 27.0369 32.2974 27.7511 32.7103 28.3567C33.1232 28.9623 33.7061 29.4322 34.3855 29.7073C35.065 29.9824 35.8106 30.0503 36.5286 29.9026C37.2465 29.7548 37.9047 29.398 38.4203 28.877C38.9359 28.3559 39.2859 27.6941 39.4261 26.9746C39.5664 26.2551 39.4906 25.5103 39.2085 24.8337C38.9263 24.1572 38.4503 23.5794 37.8404 23.1729C37.2305 22.7663 36.514 22.5491 35.781 22.5488C34.7906 22.5552 33.8432 22.9543 33.1466 23.6582C32.4499 24.3621 32.061 25.3136 32.065 26.304ZM5.60097 26.304C5.60886 27.0369 5.83339 27.7511 6.24632 28.3567C6.65926 28.9623 7.24213 29.4322 7.92156 29.7073C8.60098 29.9824 9.3466 30.0503 10.0646 29.9026C10.7825 29.7548 11.4407 29.398 11.9563 28.877C12.4719 28.3559 12.8219 27.6941 12.9621 26.9746C13.1024 26.2551 13.0266 25.5103 12.7445 24.8337C12.4623 24.1572 11.9863 23.5794 11.3764 23.1729C10.7665 22.7663 10.0499 22.5491 9.31694 22.5488C8.32642 22.5549 7.37878 22.9537 6.68193 23.6577C5.98509 24.3617 5.59597 25.3134 5.59996 26.304H5.60097ZM41.273 25.366H43.159V19.7478H40.423C40.3004 19.7473 40.1791 19.7227 40.066 19.6753C39.9529 19.6279 39.8503 19.5586 39.764 19.4714C39.6777 19.3843 39.6095 19.281 39.5632 19.1675C39.5168 19.054 39.4933 18.9324 39.4939 18.8098V16.9629C39.4937 16.2423 39.7692 15.5488 40.264 15.0249H33.885C33.8077 15.0248 33.7308 15.015 33.656 14.9958C32.9512 14.933 32.2957 14.6081 31.8191 14.0852C31.3425 13.5623 31.0794 12.8794 31.082 12.1719V7.47192C31.0813 7.34927 31.1048 7.22758 31.1511 7.11401C31.1975 7.00044 31.2657 6.89725 31.352 6.81006C31.4382 6.72286 31.5408 6.6535 31.6539 6.60596C31.767 6.55841 31.8883 6.53361 32.0109 6.53296H38.4939C38.1496 6.21428 37.7423 5.97123 37.2982 5.81982C36.8541 5.66842 36.3832 5.61187 35.9159 5.65381H29.293V25.3618H30.2869C30.4941 24.0538 31.1613 22.8627 32.1683 22.0027C33.1753 21.1426 34.4561 20.6702 35.7804 20.6702C37.1047 20.6702 38.3856 21.1426 39.3926 22.0027C40.3996 22.8627 41.0667 24.0538 41.2739 25.3618L41.273 25.366ZM14.8089 25.366H27.436V1.87598H1.88594V25.366H3.82295C4.03016 24.058 4.69725 22.8666 5.70427 22.0066C6.71129 21.1465 7.99215 20.6741 9.31645 20.6741C10.6408 20.6741 11.9216 21.1465 12.9286 22.0066C13.9357 22.8666 14.6028 24.058 14.81 25.366H14.8089ZM41.351 16.9658V17.875H43.159V16.0278H42.28C42.0331 16.0294 41.7969 16.1288 41.623 16.304C41.4491 16.4792 41.3517 16.716 41.3519 16.9629L41.351 16.9658ZM32.9379 12.1738C32.9369 12.4263 33.036 12.6691 33.2135 12.8486C33.391 13.0282 33.6325 13.13 33.885 13.1318C33.9488 13.1317 34.0125 13.1384 34.075 13.1519H42.6L39.834 8.41602H32.9339L32.9379 12.1738ZM33.031 26.3059C33.028 25.5734 33.3158 24.8695 33.8312 24.3489C34.3466 23.8283 35.0474 23.5333 35.78 23.5288C36.0287 23.5288 36.2673 23.6278 36.4432 23.8037C36.6191 23.9796 36.7179 24.218 36.7179 24.4668C36.7179 24.7156 36.6191 24.9542 36.4432 25.1301C36.2673 25.306 36.0287 25.4048 35.78 25.4048C35.6016 25.4032 35.4268 25.4548 35.2778 25.5527C35.1287 25.6507 35.0121 25.7905 34.9428 25.9548C34.8735 26.1191 34.8545 26.3005 34.8883 26.4756C34.9221 26.6507 35.0072 26.8118 35.1327 26.9385C35.2583 27.0651 35.4186 27.1516 35.5934 27.187C35.7682 27.2224 35.9496 27.2051 36.1145 27.1372C36.2794 27.0693 36.4205 26.9538 36.5197 26.8057C36.619 26.6575 36.6719 26.4833 36.672 26.3049C36.672 26.0587 36.7698 25.8226 36.9439 25.6484C37.118 25.4743 37.3542 25.3765 37.6005 25.3765C37.8467 25.3765 38.0829 25.4743 38.257 25.6484C38.4311 25.8226 38.5289 26.0587 38.5289 26.3049C38.5289 27.0343 38.2392 27.7338 37.7235 28.2495C37.2078 28.7652 36.5083 29.0549 35.7789 29.0549C35.0496 29.0549 34.3501 28.7652 33.8344 28.2495C33.3187 27.7338 33.0289 27.0343 33.0289 26.3049L33.031 26.3059ZM6.56694 26.3059C6.56402 25.5734 6.85184 24.8695 7.3672 24.3489C7.88257 23.8283 8.58342 23.5333 9.31597 23.5288C9.56474 23.5288 9.80333 23.6278 9.97923 23.8037C10.1551 23.9796 10.254 24.218 10.254 24.4668C10.254 24.7156 10.1551 24.9542 9.97923 25.1301C9.80333 25.306 9.56474 25.4048 9.31597 25.4048C9.13763 25.4032 8.96282 25.4548 8.81377 25.5527C8.66472 25.6507 8.54812 25.7905 8.47878 25.9548C8.40943 26.1191 8.39045 26.3005 8.42427 26.4756C8.45809 26.6507 8.54318 26.8118 8.66872 26.9385C8.79426 27.0651 8.95461 27.1516 9.12941 27.187C9.30421 27.2224 9.48558 27.2051 9.6505 27.1372C9.81542 27.0693 9.95646 26.9538 10.0557 26.8057C10.155 26.6575 10.208 26.4833 10.208 26.3049C10.208 26.0587 10.3058 25.8226 10.4799 25.6484C10.654 25.4743 10.8902 25.3765 11.1365 25.3765C11.3827 25.3765 11.6189 25.4743 11.793 25.6484C11.9671 25.8226 12.065 26.0587 12.065 26.3049C12.065 27.0343 11.7752 27.7338 11.2595 28.2495C10.7438 28.7652 10.0443 29.0549 9.31496 29.0549C8.58561 29.0549 7.88613 28.7652 7.37041 28.2495C6.85468 27.7338 6.56496 27.0343 6.56496 26.3049L6.56694 26.3059ZM4.70897 5.65991C4.4602 5.65991 4.22161 5.56116 4.0457 5.38525C3.86979 5.20934 3.77095 4.9707 3.77095 4.72192C3.77095 4.47315 3.86979 4.2345 4.0457 4.05859C4.22161 3.88268 4.4602 3.78394 4.70897 3.78394H24.609C24.8577 3.78394 25.0963 3.88268 25.2722 4.05859C25.4481 4.2345 25.547 4.47315 25.547 4.72192C25.547 4.9707 25.4481 5.20934 25.2722 5.38525C25.0963 5.56116 24.8577 5.65991 24.609 5.65991H4.70897Z" fill="#F16D7F"/>
</svg>
